<?xml version="1.0" encoding="UTF-8" standalone="no"?>
<svg
   xmlns:dc="http://purl.org/dc/elements/1.1/"
   xmlns:cc="http://creativecommons.org/ns#"
   xmlns:rdf="http://www.w3.org/1999/02/22-rdf-syntax-ns#"
   xmlns:svg="http://www.w3.org/2000/svg"
   xmlns="http://www.w3.org/2000/svg"
   viewBox="0 0 765 338.07501"
   height="338.07501"
   width="765"
   xml:space="preserve"
   version="1.1"
   id="svg2"><metadata
     id="metadata8"><rdf:RDF><cc:Work
         rdf:about=""><dc:format>image/svg+xml</dc:format><dc:type
           rdf:resource="http://purl.org/dc/dcmitype/StillImage" /></cc:Work></rdf:RDF></metadata><defs
     id="defs6"><clipPath
       id="clipPath16"
       clipPathUnits="userSpaceOnUse"><path
         id="path18"
         d="m 0,270.46 612,0 L 612,0 0,0 0,270.46 Z" /></clipPath></defs><g
     transform="matrix(1.25,0,0,-1.25,0,338.075)"
     id="g10"><g
       id="g12"><g
         clip-path="url(#clipPath16)"
         id="g14"><g
           transform="translate(304.9746,236.4678)"
           id="g20"><path
             id="path22"
             style="fill:#ee3338;fill-opacity:1;fill-rule:evenodd;stroke:none"
             d="M 0,0 C 21.284,52.128 130.244,0.584 -0.166,-102.459 -33.632,-76.5 -54.575,-49.717 -61.229,-24.316 -70.615,26.607 -12.169,31.891 0,0" /></g><g
           transform="translate(424.6641,236.6201)"
           id="g24"><path
             id="path26"
             style="fill:#ee3338;fill-opacity:1;fill-rule:evenodd;stroke:none"
             d="M 0,0 C 17.565,52.128 132.054,-0.274 7.421,-103.318 -28.681,-77.359 -52.103,-50.576 -60.87,-25.174 -74.426,25.749 -14.892,31.891 0,0" /></g><g
           transform="translate(187.3359,236.6201)"
           id="g28"><path
             id="path30"
             style="fill:#ee3338;fill-opacity:1;fill-rule:evenodd;stroke:none"
             d="m 0,0 c -17.565,52.128 -132.054,-0.274 -7.421,-103.318 36.102,25.959 59.524,52.742 68.292,78.144 C 74.426,25.749 14.892,31.891 0,0" /></g><g
           transform="translate(474.6367,188.2974)"
           id="g32"><path
             id="path34"
             style="fill:#ffffff;fill-opacity:1;fill-rule:evenodd;stroke:none"
             d="m 0,0 0.001,0.001 0,0 c 0.219,0.623 0.359,1.153 0.386,1.537 -2.104,2.365 -5.123,3.666 -7.676,5.743 -8.08,6.574 -15.279,16.588 -23.446,23.072 -1.361,1.05 -2.472,1.925 -3.733,2.956 -3.19,2.607 -12.965,14.678 -17.912,14.314 -1.033,-3.704 1.653,-6.998 1.96,-10.991 l -1.235,0.408 c -2.375,1.273 -5.243,3.562 -8.04,4.216 1.302,-2.606 2.221,-2.735 3.73,-4.423 1.98,-2.216 1.202,-3.299 0.417,-5.591 l -0.586,-0.57 -1.299,-0.962 -1.515,-0.84 c -12.482,-9.205 -6.885,-7.037 -12.624,-17.402 -1.296,-2.34 -3.45,-4.25 -2.02,-7.43 0.975,-2.167 2.52,-4.746 4.442,-5.756 2.942,-1.331 1.847,-4.056 5.526,-4.989 0.687,-0.224 6.543,0.217 8.317,0.239 13.692,0.172 12.86,-17.707 16.509,-26.805 C -23.114,-29.769 -5.344,-15.175 0,0" /></g><g
           transform="translate(167.6304,211.5923)"
           id="g36"><path
             id="path38"
             style="fill:#ffffff;fill-opacity:1;fill-rule:evenodd;stroke:none"
             d="m 0,0 c -1.521,-3.987 -0.206,-3.405 -3.928,-5.455 l 0.004,-0.004 c -5.878,-4.322 -17.092,-10.099 -21.615,-14.056 -0.44,-23.383 21.168,-35.192 35.521,-34.383 1.448,3.098 6.913,15.058 9.807,15.2 5.538,0.271 18.217,-7.923 24.568,-0.899 -3.031,4.09 -8.163,3.884 -10.757,7.877 8.125,1.549 17.677,-2.542 24.295,9.054 0.034,0.06 0.097,0.174 0.159,0.251 -3.2,5.744 -14.547,7.289 -18.962,12.274 -0.708,0.685 -0.449,0.444 -1.157,0.824 -0.651,2.57 -6.471,8.158 -8.766,9.857 -1.324,0.909 -2.612,1.606 -4.171,2.54 -1.577,0.837 -3.038,0.902 -3.394,2.594 -0.025,0.011 -0.05,0.022 -0.074,0.032 -0.548,5.056 -0.313,9.229 1.022,13.814 -2.593,-1.175 -3.404,-3.689 -5.321,-4.628 -0.542,2.036 -0.419,5.628 -2.306,6.955 C 14.256,21.914 14.06,21.71 13.085,20.231 8.037,12.563 3.267,8.562 0,0" /></g><g
           transform="translate(292.0444,180.1523)"
           id="g40"><path
             id="path42"
             style="fill:#ffffff;fill-opacity:1;fill-rule:evenodd;stroke:none"
             d="m 0,0 c 0.517,1.691 1.801,5.797 2.5,6.288 l 2.245,1.986 c 2.717,1.872 6.526,0.354 9.811,0.455 7.061,0.219 10.557,4.865 15.062,-5.137 2.256,-4.062 6.377,-4.778 8.752,-9.132 4.75,-8.707 -3.228,-13.044 -11.805,-11.329 -8.427,2.06 -9.839,-5.139 -16.052,-2.971 -1.401,0.577 -2.78,1.353 -4.203,1.732 -2.302,0.369 -4.029,-0.434 -5.595,-1.564 l -0.706,-0.441 -0.008,-0.006 c -0.011,-0.008 -0.337,-0.21 -0.521,-0.323 l -0.011,-0.008 -0.011,-0.007 -0.011,-0.006 -0.009,-0.006 -0.01,-0.006 -0.003,-0.002 -0.064,-0.04 c -3.486,-0.462 -6.401,-0.015 -7.984,2.18 -1.606,2.228 -1.367,5.967 0.134,8.312 0.35,0.713 2.072,2.381 2.815,2.978 0.257,0.206 0.661,0.407 1.085,0.662 1.073,0.643 1.924,1.023 2.353,1.424 C -1.651,-4.81 -0.227,-0.743 0,0 m 13.251,40.413 c -1.033,-11.084 3.295,-18.759 11.434,-13.315 1.223,0.817 1.65,1.044 2.477,2.103 2.534,3.401 3.874,7.533 3.171,11.848 -0.979,6.004 -7.435,10.484 -13.128,6.574 -2.17,-1.49 -3.089,-4.027 -3.954,-7.21 M -24.903,11.147 c -0.313,-4.069 0.153,-6.279 2.847,-9.303 4.384,-3.597 9.622,-3.128 13.885,0.32 1.008,0.815 1.759,1.376 2.641,2.653 1.297,1.877 2.554,5.04 1.613,7.76 -1.208,4.181 -8.747,8.499 -12.876,7.379 -4.874,-1.323 -6.707,-4.087 -8.11,-8.809 m 56.771,17.228 c -3.317,-3.657 -2.162,-6.725 -2.681,-11.042 -0.315,-2.619 0.346,-5.781 1.939,-7.9 1.631,-2.168 3.34,-3.036 6.321,-2.559 2.966,0.475 4.774,2.334 6.29,4.711 0.729,1.145 1.055,1.953 1.649,3.288 0.432,0.969 2.323,5.852 2.442,6.755 l 0.239,1.518 c 0.226,3.02 -1.94,6.154 -3.431,7.188 -3.866,2.682 -9.667,1.46 -12.768,-1.959 M -9.963,34.071 C -9.988,27.274 -6.305,22.109 0.816,22.461 l -0.012,-0.017 1.439,0.105 c 2.014,0.578 3.666,1.218 5.19,2.777 5.019,5.131 2.569,15.982 -4.394,18.777 -8.185,3.285 -12.975,-2.475 -13.002,-10.032" /></g><g
           transform="translate(203.457,59.6357)"
           id="g44"><path
             id="path46"
             style="fill:#373535;fill-opacity:1;fill-rule:nonzero;stroke:none"
             d="m 0,0 c -0.162,-0.828 -0.398,-1.538 -0.698,-2.135 -0.301,-0.601 -0.682,-1.096 -1.149,-1.486 -0.463,-0.393 -1.015,-0.686 -1.652,-0.877 -0.637,-0.19 -1.376,-0.283 -2.216,-0.283 -0.159,0 -0.349,0.004 -0.569,0.012 -0.223,0.008 -0.413,0.02 -0.572,0.036 l 0.333,1.778 c 0.365,-0.048 0.706,-0.073 1.023,-0.073 0.941,0 1.697,0.244 2.257,0.727 0.564,0.487 0.95,1.254 1.157,2.297 l 1.737,8.691 -3.828,0 0.345,1.729 3.828,0 0.398,1.977 c 0.313,1.575 0.929,2.764 1.851,3.568 0.922,0.799 2.212,1.202 3.872,1.202 0.423,0 0.885,-0.025 1.388,-0.074 0.504,-0.045 1.003,-0.117 1.494,-0.211 L 8.63,15.116 C 8.175,15.218 7.721,15.295 7.266,15.352 6.808,15.405 6.353,15.433 5.902,15.433 4.957,15.433 4.201,15.182 3.637,14.674 3.073,14.167 2.691,13.403 2.488,12.393 l -0.398,-1.977 5.253,0 -0.345,-1.729 -5.252,0 L 0,0 Z M 31.454,5.691 C 31.421,5.541 31.385,5.342 31.353,5.099 31.316,4.851 31.275,4.518 31.227,4.104 31.178,3.69 31.117,3.167 31.048,2.533 30.975,1.904 30.894,1.128 30.796,0.211 l -1.948,0 0.297,2.744 C 28.596,2.005 27.939,1.271 27.164,0.759 26.392,0.248 25.552,-0.008 24.639,-0.008 23.38,-0.008 22.483,0.374 21.956,1.137 21.432,1.9 21.318,3.016 21.619,4.49 l 1.534,7.655 2.07,0 -1.534,-7.631 C 23.49,3.556 23.502,2.858 23.729,2.423 23.957,1.989 24.391,1.77 25.032,1.77 c 0.342,0 0.678,0.081 1.015,0.24 0.337,0.158 0.666,0.377 0.987,0.657 0.32,0.28 0.625,0.609 0.917,0.986 0.288,0.378 0.552,0.784 0.796,1.218 0.243,0.434 0.45,0.889 0.625,1.36 0.174,0.471 0.308,0.942 0.401,1.409 l 0.906,4.505 2.07,0 -1.295,-6.454 z m 16.301,0.975 c 0.033,0.149 0.065,0.349 0.101,0.592 0.037,0.248 0.078,0.58 0.126,0.994 0.049,0.415 0.106,0.938 0.179,1.571 0.069,0.63 0.154,1.405 0.248,2.322 l 1.952,0 -0.297,-2.756 c 0.553,0.958 1.218,1.697 1.99,2.208 0.775,0.511 1.611,0.768 2.516,0.768 1.259,0 2.152,-0.382 2.68,-1.145 0.527,-0.763 0.641,-1.884 0.34,-3.366 l -1.53,-7.643 -2.07,0 1.53,7.619 c 0.199,0.966 0.183,1.669 -0.041,2.103 -0.227,0.434 -0.657,0.653 -1.29,0.653 -0.508,0 -1.015,-0.174 -1.514,-0.523 C 52.171,9.714 51.701,9.259 51.262,8.699 50.828,8.139 50.45,7.51 50.13,6.812 49.809,6.113 49.578,5.415 49.436,4.717 l -0.901,-4.506 -2.071,0 1.291,6.455 z m 31.661,5.626 c 0.568,0 1.051,-0.025 1.441,-0.074 0.394,-0.044 0.763,-0.122 1.112,-0.223 l 1.007,5.021 2.07,0 L 82.777,5.691 C 82.745,5.541 82.708,5.342 82.675,5.099 82.639,4.851 82.598,4.522 82.55,4.104 82.501,3.69 82.444,3.167 82.371,2.537 82.298,1.904 82.217,1.133 82.119,0.211 l -1.948,0 0.296,2.748 c -0.544,-0.954 -1.209,-1.688 -1.988,-2.2 -0.78,-0.511 -1.628,-0.767 -2.538,-0.767 -0.572,0 -1.067,0.093 -1.493,0.284 -0.423,0.191 -0.776,0.463 -1.052,0.816 -0.276,0.353 -0.483,0.775 -0.617,1.266 -0.133,0.492 -0.203,1.039 -0.203,1.644 0,1.141 0.151,2.213 0.447,3.215 0.296,1.003 0.734,1.884 1.311,2.635 0.576,0.755 1.291,1.347 2.143,1.786 0.853,0.434 1.831,0.654 2.939,0.654 M 74.671,4.209 c 0,-0.754 0.13,-1.343 0.393,-1.773 0.26,-0.426 0.683,-0.642 1.271,-0.642 0.341,0 0.682,0.081 1.019,0.24 0.341,0.158 0.674,0.373 0.999,0.654 0.324,0.275 0.633,0.6 0.921,0.978 0.288,0.377 0.556,0.779 0.795,1.213 0.244,0.431 0.451,0.881 0.626,1.356 0.174,0.471 0.308,0.942 0.402,1.409 l 0.49,2.456 c -0.369,0.158 -0.754,0.284 -1.144,0.373 -0.394,0.093 -0.755,0.138 -1.088,0.138 -0.649,0 -1.217,-0.11 -1.701,-0.333 C 77.171,10.055 76.753,9.767 76.408,9.409 76.059,9.052 75.771,8.646 75.552,8.191 75.328,7.733 75.154,7.266 75.02,6.791 74.89,6.316 74.801,5.854 74.748,5.399 74.695,4.948 74.671,4.551 74.671,4.209 m 30.451,8.083 c 0.516,0 1.007,-0.033 1.474,-0.102 0.467,-0.065 0.917,-0.163 1.343,-0.293 l 1.879,0.468 -1.343,-6.674 C 108.442,5.541 108.41,5.342 108.374,5.099 108.337,4.851 108.297,4.522 108.248,4.104 108.203,3.69 108.143,3.167 108.069,2.537 108,1.904 107.915,1.133 107.821,0.211 l -1.952,0 0.3,2.748 c -0.548,-0.954 -1.213,-1.688 -1.993,-2.2 -0.779,-0.511 -1.627,-0.767 -2.537,-0.767 -0.572,0 -1.067,0.093 -1.493,0.284 -0.422,0.191 -0.775,0.463 -1.052,0.816 -0.276,0.353 -0.483,0.775 -0.617,1.266 -0.134,0.492 -0.203,1.039 -0.203,1.644 0,1.141 0.15,2.213 0.447,3.215 0.296,1.003 0.735,1.884 1.311,2.635 0.581,0.755 1.295,1.347 2.147,1.786 0.852,0.434 1.835,0.654 2.943,0.654 m -4.753,-8.083 c 0,-0.754 0.13,-1.343 0.394,-1.773 0.259,-0.426 0.681,-0.642 1.27,-0.642 0.341,0 0.682,0.081 1.019,0.24 0.341,0.158 0.674,0.373 0.999,0.654 0.324,0.275 0.633,0.604 0.921,0.981 0.293,0.374 0.556,0.78 0.799,1.214 0.24,0.43 0.447,0.881 0.622,1.356 0.174,0.471 0.308,0.942 0.406,1.408 l 0.486,2.453 c -0.373,0.158 -0.754,0.284 -1.148,0.373 -0.39,0.093 -0.751,0.138 -1.084,0.138 -0.65,0 -1.217,-0.11 -1.7,-0.333 -0.484,-0.223 -0.902,-0.511 -1.251,-0.869 -0.345,-0.357 -0.633,-0.763 -0.852,-1.218 -0.224,-0.458 -0.398,-0.925 -0.532,-1.4 -0.13,-0.475 -0.219,-0.937 -0.272,-1.392 -0.053,-0.451 -0.077,-0.848 -0.077,-1.19 m 32.736,-3.511 c -0.665,-0.231 -1.282,-0.397 -1.854,-0.503 -0.568,-0.101 -1.153,-0.154 -1.75,-0.154 -1.583,0 -2.805,0.365 -3.661,1.1 -0.857,0.734 -1.283,1.835 -1.283,3.3 0,1.205 0.191,2.293 0.573,3.267 0.377,0.971 0.896,1.794 1.554,2.477 0.658,0.682 1.429,1.209 2.309,1.579 0.877,0.369 1.815,0.552 2.806,0.552 0.572,0 1.144,-0.045 1.717,-0.13 0.576,-0.09 1.12,-0.232 1.635,-0.43 L 134.782,9.88 c -0.434,0.207 -0.933,0.373 -1.486,0.495 -0.556,0.126 -1.092,0.188 -1.608,0.188 -0.803,0 -1.509,-0.167 -2.126,-0.5 -0.613,-0.333 -1.132,-0.775 -1.55,-1.327 -0.423,-0.552 -0.743,-1.177 -0.958,-1.88 -0.22,-0.702 -0.329,-1.42 -0.329,-2.159 0,-0.967 0.263,-1.693 0.787,-2.176 0.524,-0.483 1.291,-0.727 2.309,-0.727 0.524,0 1.073,0.057 1.649,0.167 0.576,0.113 1.12,0.276 1.635,0.491 l 0,-1.754 z m 21.923,14.76 c 0,0.247 0.045,0.475 0.13,0.682 0.09,0.206 0.211,0.385 0.365,0.535 0.155,0.15 0.333,0.268 0.54,0.357 0.208,0.086 0.431,0.131 0.67,0.131 0.228,0 0.439,-0.041 0.629,-0.126 0.192,-0.082 0.358,-0.195 0.495,-0.333 0.139,-0.138 0.248,-0.305 0.322,-0.496 0.077,-0.19 0.113,-0.394 0.113,-0.604 0,-0.248 -0.045,-0.476 -0.13,-0.682 -0.089,-0.203 -0.211,-0.386 -0.365,-0.536 -0.154,-0.15 -0.333,-0.268 -0.54,-0.357 -0.207,-0.086 -0.431,-0.131 -0.67,-0.131 -0.228,0 -0.442,0.041 -0.637,0.126 -0.191,0.082 -0.357,0.196 -0.491,0.333 -0.138,0.138 -0.244,0.305 -0.317,0.496 -0.077,0.19 -0.114,0.394 -0.114,0.605 m 4.916,-14.492 c -0.544,-0.304 -1.12,-0.544 -1.725,-0.714 -0.609,-0.175 -1.254,-0.26 -1.945,-0.26 -0.559,0 -1.031,0.081 -1.412,0.239 -0.378,0.159 -0.67,0.411 -0.873,0.755 -0.203,0.346 -0.312,0.788 -0.337,1.328 -0.024,0.536 0.037,1.193 0.187,1.96 l 0.804,3.999 c 0.093,0.451 0.142,0.828 0.138,1.132 -0.004,0.304 -0.049,0.548 -0.126,0.731 -0.081,0.182 -0.199,0.313 -0.353,0.385 -0.155,0.078 -0.333,0.114 -0.54,0.114 -0.539,0 -1.072,-0.105 -1.595,-0.312 -0.523,-0.207 -1.056,-0.459 -1.596,-0.76 l 0,1.827 c 0.549,0.3 1.125,0.54 1.73,0.714 0.609,0.175 1.259,0.261 1.948,0.261 0.561,0 1.035,-0.082 1.417,-0.24 0.377,-0.158 0.67,-0.41 0.873,-0.755 0.202,-0.345 0.316,-0.787 0.341,-1.323 0.019,-0.54 -0.041,-1.198 -0.192,-1.965 l -0.803,-3.999 c -0.085,-0.458 -0.13,-0.839 -0.13,-1.14 0,-0.3 0.045,-0.54 0.126,-0.722 0.085,-0.183 0.199,-0.313 0.349,-0.386 0.15,-0.077 0.329,-0.114 0.536,-0.114 0.536,0 1.068,0.106 1.591,0.317 0.52,0.211 1.051,0.462 1.587,0.755 l 0,-1.827 z m 19.813,-0.974 c -1.429,0 -2.541,0.365 -3.337,1.1 -0.8,0.735 -1.197,1.835 -1.197,3.3 0,0.662 0.068,1.311 0.207,1.957 0.137,0.649 0.344,1.266 0.612,1.859 0.272,0.588 0.605,1.141 1.003,1.648 0.393,0.507 0.852,0.945 1.368,1.319 0.516,0.373 1.084,0.666 1.705,0.873 0.625,0.211 1.299,0.317 2.029,0.317 0.714,0 1.352,-0.094 1.913,-0.281 0.555,-0.187 1.03,-0.462 1.412,-0.832 0.385,-0.369 0.681,-0.828 0.888,-1.38 0.208,-0.552 0.309,-1.193 0.309,-1.92 0,-0.649 -0.068,-1.299 -0.207,-1.944 -0.138,-0.65 -0.345,-1.267 -0.612,-1.86 -0.273,-0.588 -0.606,-1.14 -0.999,-1.648 -0.398,-0.507 -0.853,-0.945 -1.364,-1.319 -0.511,-0.373 -1.08,-0.665 -1.709,-0.872 -0.626,-0.211 -1.299,-0.317 -2.021,-0.317 m 4.794,7.753 c 0,0.958 -0.228,1.676 -0.679,2.151 -0.45,0.476 -1.111,0.715 -1.976,0.715 -0.492,0 -0.946,-0.085 -1.369,-0.256 -0.418,-0.17 -0.795,-0.406 -1.131,-0.702 -0.337,-0.297 -0.638,-0.642 -0.894,-1.035 -0.26,-0.394 -0.471,-0.808 -0.641,-1.25 -0.171,-0.439 -0.3,-0.897 -0.39,-1.368 -0.085,-0.471 -0.129,-0.93 -0.129,-1.376 0,-0.958 0.226,-1.677 0.678,-2.16 0.45,-0.479 1.112,-0.718 1.976,-0.718 0.499,0 0.958,0.085 1.372,0.255 0.418,0.171 0.791,0.406 1.128,0.703 0.337,0.296 0.638,0.641 0.894,1.035 0.259,0.393 0.474,0.812 0.645,1.254 0.17,0.446 0.296,0.905 0.386,1.376 0.085,0.471 0.13,0.929 0.13,1.376 m 2.848,9.271 -3.945,-2.873 -2.07,0 3.02,2.873 2.995,0 z m 14.544,-10.35 c 0.033,0.149 0.066,0.349 0.102,0.592 0.036,0.248 0.077,0.58 0.126,0.994 0.049,0.415 0.105,0.938 0.179,1.571 0.068,0.63 0.154,1.405 0.247,2.322 l 1.953,0 -0.297,-2.756 c 0.552,0.958 1.218,1.697 1.989,2.208 0.776,0.511 1.612,0.768 2.517,0.768 1.259,0 2.151,-0.382 2.678,-1.145 0.529,-0.763 0.642,-1.884 0.341,-3.366 l -1.53,-7.643 -2.069,0 1.529,7.619 c 0.199,0.966 0.184,1.669 -0.04,2.103 -0.228,0.434 -0.658,0.653 -1.291,0.653 -0.508,0 -1.015,-0.174 -1.514,-0.523 -0.504,-0.349 -0.974,-0.804 -1.413,-1.364 -0.433,-0.56 -0.811,-1.189 -1.132,-1.887 -0.321,-0.699 -0.552,-1.397 -0.694,-2.095 l -0.901,-4.506 -2.071,0 1.291,6.455 z" /></g><g
           transform="translate(203.457,59.6357)"
           id="g48"><path
             id="path50"
             style="fill:none;stroke:#373535;stroke-width:0.21600001;stroke-linecap:butt;stroke-linejoin:miter;stroke-miterlimit:22.9260006;stroke-dasharray:none;stroke-opacity:1"
             d="m 0,0 c -0.162,-0.828 -0.398,-1.538 -0.698,-2.135 -0.301,-0.601 -0.682,-1.096 -1.149,-1.486 -0.463,-0.393 -1.015,-0.686 -1.652,-0.877 -0.637,-0.19 -1.376,-0.283 -2.216,-0.283 -0.159,0 -0.349,0.004 -0.569,0.012 -0.223,0.008 -0.413,0.02 -0.572,0.036 l 0.333,1.778 c 0.365,-0.048 0.706,-0.073 1.023,-0.073 0.941,0 1.697,0.244 2.257,0.727 0.564,0.487 0.95,1.254 1.157,2.297 l 1.737,8.691 -3.828,0 0.345,1.729 3.828,0 0.398,1.977 c 0.313,1.575 0.929,2.764 1.851,3.568 0.922,0.799 2.212,1.202 3.872,1.202 0.423,0 0.885,-0.025 1.388,-0.074 0.504,-0.045 1.003,-0.117 1.494,-0.211 L 8.63,15.116 C 8.175,15.218 7.721,15.295 7.266,15.352 6.808,15.405 6.353,15.433 5.902,15.433 4.957,15.433 4.201,15.182 3.637,14.674 3.073,14.167 2.691,13.403 2.488,12.393 l -0.398,-1.977 5.253,0 -0.345,-1.729 -5.252,0 L 0,0 Z M 31.454,5.691 C 31.421,5.541 31.385,5.342 31.353,5.099 31.316,4.851 31.275,4.518 31.227,4.104 31.178,3.69 31.117,3.167 31.048,2.533 30.975,1.904 30.894,1.128 30.796,0.211 l -1.948,0 0.297,2.744 C 28.596,2.005 27.939,1.271 27.164,0.759 26.392,0.248 25.552,-0.008 24.639,-0.008 23.38,-0.008 22.483,0.374 21.956,1.137 21.432,1.9 21.318,3.016 21.619,4.49 l 1.534,7.655 2.07,0 -1.534,-7.631 C 23.49,3.556 23.502,2.858 23.729,2.423 23.957,1.989 24.391,1.77 25.032,1.77 c 0.342,0 0.678,0.081 1.015,0.24 0.337,0.158 0.666,0.377 0.987,0.657 0.32,0.28 0.625,0.609 0.917,0.986 0.288,0.378 0.552,0.784 0.796,1.218 0.243,0.434 0.45,0.889 0.625,1.36 0.174,0.471 0.308,0.942 0.401,1.409 l 0.906,4.505 2.07,0 -1.295,-6.454 z m 16.301,0.975 c 0.033,0.149 0.065,0.349 0.101,0.592 0.037,0.248 0.078,0.58 0.126,0.994 0.049,0.415 0.106,0.938 0.179,1.571 0.069,0.63 0.154,1.405 0.248,2.322 l 1.952,0 -0.297,-2.756 c 0.553,0.958 1.218,1.697 1.99,2.208 0.775,0.511 1.611,0.768 2.516,0.768 1.259,0 2.152,-0.382 2.68,-1.145 0.527,-0.763 0.641,-1.884 0.34,-3.366 l -1.53,-7.643 -2.07,0 1.53,7.619 c 0.199,0.966 0.183,1.669 -0.041,2.103 -0.227,0.434 -0.657,0.653 -1.29,0.653 -0.508,0 -1.015,-0.174 -1.514,-0.523 C 52.171,9.714 51.701,9.259 51.262,8.699 50.828,8.139 50.45,7.51 50.13,6.812 49.809,6.113 49.578,5.415 49.436,4.717 l -0.901,-4.506 -2.071,0 1.291,6.455 z m 31.661,5.626 c 0.568,0 1.051,-0.025 1.441,-0.074 0.394,-0.044 0.763,-0.122 1.112,-0.223 l 1.007,5.021 2.07,0 L 82.777,5.691 C 82.745,5.541 82.708,5.342 82.675,5.099 82.639,4.851 82.598,4.522 82.55,4.104 82.501,3.69 82.444,3.167 82.371,2.537 82.298,1.904 82.217,1.133 82.119,0.211 l -1.948,0 0.296,2.748 c -0.544,-0.954 -1.209,-1.688 -1.988,-2.2 -0.78,-0.511 -1.628,-0.767 -2.538,-0.767 -0.572,0 -1.067,0.093 -1.493,0.284 -0.423,0.191 -0.776,0.463 -1.052,0.816 -0.276,0.353 -0.483,0.775 -0.617,1.266 -0.133,0.492 -0.203,1.039 -0.203,1.644 0,1.141 0.151,2.213 0.447,3.215 0.296,1.003 0.734,1.884 1.311,2.635 0.576,0.755 1.291,1.347 2.143,1.786 0.853,0.434 1.831,0.654 2.939,0.654 z M 74.671,4.209 c 0,-0.754 0.13,-1.343 0.393,-1.773 0.26,-0.426 0.683,-0.642 1.271,-0.642 0.341,0 0.682,0.081 1.019,0.24 0.341,0.158 0.674,0.373 0.999,0.654 0.324,0.275 0.633,0.6 0.921,0.978 0.288,0.377 0.556,0.779 0.795,1.213 0.244,0.431 0.451,0.881 0.626,1.356 0.174,0.471 0.308,0.942 0.402,1.409 l 0.49,2.456 c -0.369,0.158 -0.754,0.284 -1.144,0.373 -0.394,0.093 -0.755,0.138 -1.088,0.138 -0.649,0 -1.217,-0.11 -1.701,-0.333 C 77.171,10.055 76.753,9.767 76.408,9.409 76.059,9.052 75.771,8.646 75.552,8.191 75.328,7.733 75.154,7.266 75.02,6.791 74.89,6.316 74.801,5.854 74.748,5.399 74.695,4.948 74.671,4.551 74.671,4.209 Z m 30.451,8.083 c 0.516,0 1.007,-0.033 1.474,-0.102 0.467,-0.065 0.917,-0.163 1.343,-0.293 l 1.879,0.468 -1.343,-6.674 C 108.442,5.541 108.41,5.342 108.374,5.099 108.337,4.851 108.297,4.522 108.248,4.104 108.203,3.69 108.143,3.167 108.069,2.537 108,1.904 107.915,1.133 107.821,0.211 l -1.952,0 0.3,2.748 c -0.548,-0.954 -1.213,-1.688 -1.993,-2.2 -0.779,-0.511 -1.627,-0.767 -2.537,-0.767 -0.572,0 -1.067,0.093 -1.493,0.284 -0.422,0.191 -0.775,0.463 -1.052,0.816 -0.276,0.353 -0.483,0.775 -0.617,1.266 -0.134,0.492 -0.203,1.039 -0.203,1.644 0,1.141 0.15,2.213 0.447,3.215 0.296,1.003 0.735,1.884 1.311,2.635 0.581,0.755 1.295,1.347 2.147,1.786 0.852,0.434 1.835,0.654 2.943,0.654 z m -4.753,-8.083 c 0,-0.754 0.13,-1.343 0.394,-1.773 0.259,-0.426 0.681,-0.642 1.27,-0.642 0.341,0 0.682,0.081 1.019,0.24 0.341,0.158 0.674,0.373 0.999,0.654 0.324,0.275 0.633,0.604 0.921,0.981 0.293,0.374 0.556,0.78 0.799,1.214 0.24,0.43 0.447,0.881 0.622,1.356 0.174,0.471 0.308,0.942 0.406,1.408 l 0.486,2.453 c -0.373,0.158 -0.754,0.284 -1.148,0.373 -0.39,0.093 -0.751,0.138 -1.084,0.138 -0.65,0 -1.217,-0.11 -1.7,-0.333 -0.484,-0.223 -0.902,-0.511 -1.251,-0.869 -0.345,-0.357 -0.633,-0.763 -0.852,-1.218 -0.224,-0.458 -0.398,-0.925 -0.532,-1.4 -0.13,-0.475 -0.219,-0.937 -0.272,-1.392 -0.053,-0.451 -0.077,-0.848 -0.077,-1.19 z m 32.736,-3.511 c -0.665,-0.231 -1.282,-0.397 -1.854,-0.503 -0.568,-0.101 -1.153,-0.154 -1.75,-0.154 -1.583,0 -2.805,0.365 -3.661,1.1 -0.857,0.734 -1.283,1.835 -1.283,3.3 0,1.205 0.191,2.293 0.573,3.267 0.377,0.971 0.896,1.794 1.554,2.477 0.658,0.682 1.429,1.209 2.309,1.579 0.877,0.369 1.815,0.552 2.806,0.552 0.572,0 1.144,-0.045 1.717,-0.13 0.576,-0.09 1.12,-0.232 1.635,-0.43 L 134.782,9.88 c -0.434,0.207 -0.933,0.373 -1.486,0.495 -0.556,0.126 -1.092,0.188 -1.608,0.188 -0.803,0 -1.509,-0.167 -2.126,-0.5 -0.613,-0.333 -1.132,-0.775 -1.55,-1.327 -0.423,-0.552 -0.743,-1.177 -0.958,-1.88 -0.22,-0.702 -0.329,-1.42 -0.329,-2.159 0,-0.967 0.263,-1.693 0.787,-2.176 0.524,-0.483 1.291,-0.727 2.309,-0.727 0.524,0 1.073,0.057 1.649,0.167 0.576,0.113 1.12,0.276 1.635,0.491 l 0,-1.754 z m 21.923,14.76 c 0,0.247 0.045,0.475 0.13,0.682 0.09,0.206 0.211,0.385 0.365,0.535 0.155,0.15 0.333,0.268 0.54,0.357 0.208,0.086 0.431,0.131 0.67,0.131 0.228,0 0.439,-0.041 0.629,-0.126 0.192,-0.082 0.358,-0.195 0.495,-0.333 0.139,-0.138 0.248,-0.305 0.322,-0.496 0.077,-0.19 0.113,-0.394 0.113,-0.604 0,-0.248 -0.045,-0.476 -0.13,-0.682 -0.089,-0.203 -0.211,-0.386 -0.365,-0.536 -0.154,-0.15 -0.333,-0.268 -0.54,-0.357 -0.207,-0.086 -0.431,-0.131 -0.67,-0.131 -0.228,0 -0.442,0.041 -0.637,0.126 -0.191,0.082 -0.357,0.196 -0.491,0.333 -0.138,0.138 -0.244,0.305 -0.317,0.496 -0.077,0.19 -0.114,0.394 -0.114,0.605 z m 4.916,-14.492 c -0.544,-0.304 -1.12,-0.544 -1.725,-0.714 -0.609,-0.175 -1.254,-0.26 -1.945,-0.26 -0.559,0 -1.031,0.081 -1.412,0.239 -0.378,0.159 -0.67,0.411 -0.873,0.755 -0.203,0.346 -0.312,0.788 -0.337,1.328 -0.024,0.536 0.037,1.193 0.187,1.96 l 0.804,3.999 c 0.093,0.451 0.142,0.828 0.138,1.132 -0.004,0.304 -0.049,0.548 -0.126,0.731 -0.081,0.182 -0.199,0.313 -0.353,0.385 -0.155,0.078 -0.333,0.114 -0.54,0.114 -0.539,0 -1.072,-0.105 -1.595,-0.312 -0.523,-0.207 -1.056,-0.459 -1.596,-0.76 l 0,1.827 c 0.549,0.3 1.125,0.54 1.73,0.714 0.609,0.175 1.259,0.261 1.948,0.261 0.561,0 1.035,-0.082 1.417,-0.24 0.377,-0.158 0.67,-0.41 0.873,-0.755 0.202,-0.345 0.316,-0.787 0.341,-1.323 0.019,-0.54 -0.041,-1.198 -0.192,-1.965 l -0.803,-3.999 c -0.085,-0.458 -0.13,-0.839 -0.13,-1.14 0,-0.3 0.045,-0.54 0.126,-0.722 0.085,-0.183 0.199,-0.313 0.349,-0.386 0.15,-0.077 0.329,-0.114 0.536,-0.114 0.536,0 1.068,0.106 1.591,0.317 0.52,0.211 1.051,0.462 1.587,0.755 l 0,-1.827 z m 19.813,-0.974 c -1.429,0 -2.541,0.365 -3.337,1.1 -0.8,0.735 -1.197,1.835 -1.197,3.3 0,0.662 0.068,1.311 0.207,1.957 0.137,0.649 0.344,1.266 0.612,1.859 0.272,0.588 0.605,1.141 1.003,1.648 0.393,0.507 0.852,0.945 1.368,1.319 0.516,0.373 1.084,0.666 1.705,0.873 0.625,0.211 1.299,0.317 2.029,0.317 0.714,0 1.352,-0.094 1.913,-0.281 0.555,-0.187 1.03,-0.462 1.412,-0.832 0.385,-0.369 0.681,-0.828 0.888,-1.38 0.208,-0.552 0.309,-1.193 0.309,-1.92 0,-0.649 -0.068,-1.299 -0.207,-1.944 -0.138,-0.65 -0.345,-1.267 -0.612,-1.86 -0.273,-0.588 -0.606,-1.14 -0.999,-1.648 -0.398,-0.507 -0.853,-0.945 -1.364,-1.319 -0.511,-0.373 -1.08,-0.665 -1.709,-0.872 -0.626,-0.211 -1.299,-0.317 -2.021,-0.317 z m 4.794,7.753 c 0,0.958 -0.228,1.676 -0.679,2.151 -0.45,0.476 -1.111,0.715 -1.976,0.715 -0.492,0 -0.946,-0.085 -1.369,-0.256 -0.418,-0.17 -0.795,-0.406 -1.131,-0.702 -0.337,-0.297 -0.638,-0.642 -0.894,-1.035 -0.26,-0.394 -0.471,-0.808 -0.641,-1.25 -0.171,-0.439 -0.3,-0.897 -0.39,-1.368 -0.085,-0.471 -0.129,-0.93 -0.129,-1.376 0,-0.958 0.226,-1.677 0.678,-2.16 0.45,-0.479 1.112,-0.718 1.976,-0.718 0.499,0 0.958,0.085 1.372,0.255 0.418,0.171 0.791,0.406 1.128,0.703 0.337,0.296 0.638,0.641 0.894,1.035 0.259,0.393 0.474,0.812 0.645,1.254 0.17,0.446 0.296,0.905 0.386,1.376 0.085,0.471 0.13,0.929 0.13,1.376 z m 2.848,9.271 -3.945,-2.873 -2.07,0 3.02,2.873 2.995,0 z m 14.544,-10.35 c 0.033,0.149 0.066,0.349 0.102,0.592 0.036,0.248 0.077,0.58 0.126,0.994 0.049,0.415 0.105,0.938 0.179,1.571 0.068,0.63 0.154,1.405 0.247,2.322 l 1.953,0 -0.297,-2.756 c 0.552,0.958 1.218,1.697 1.989,2.208 0.776,0.511 1.612,0.768 2.517,0.768 1.259,0 2.151,-0.382 2.678,-1.145 0.529,-0.763 0.642,-1.884 0.341,-3.366 l -1.53,-7.643 -2.069,0 1.529,7.619 c 0.199,0.966 0.184,1.669 -0.04,2.103 -0.228,0.434 -0.658,0.653 -1.291,0.653 -0.508,0 -1.015,-0.174 -1.514,-0.523 -0.504,-0.349 -0.974,-0.804 -1.413,-1.364 -0.433,-0.56 -0.811,-1.189 -1.132,-1.887 -0.321,-0.699 -0.552,-1.397 -0.694,-2.095 l -0.901,-4.506 -2.071,0 1.291,6.455 z" /></g><g
           transform="translate(102.9438,85.3057)"
           id="g52"><path
             id="path54"
             style="fill:#373535;fill-opacity:1;fill-rule:nonzero;stroke:none"
             d="m 0,0 -3.665,0 0,37.056 3.665,0 0,-16.619 17.612,0 0,16.619 3.639,0 0,-37.056 -3.639,0 0,16.899 L 0,16.899 0,0 Z" /></g><g
           transform="translate(102.9438,85.3057)"
           id="g56"><path
             id="path58"
             style="fill:none;stroke:#ffffff;stroke-width:2;stroke-linecap:round;stroke-linejoin:round;stroke-miterlimit:10;stroke-dasharray:none;stroke-opacity:1"
             d="m 0,0 -3.665,0 0,37.056 3.665,0 0,-16.619 17.612,0 0,16.619 3.639,0 0,-37.056 -3.639,0 0,16.899 L 0,16.899 0,0 Z" /></g><g
           transform="translate(130.5576,122.3613)"
           id="g60"><path
             id="path62"
             style="fill:#373535;fill-opacity:1;fill-rule:nonzero;stroke:none"
             d="m 0,0 3.639,0 0,-23.439 c 0,-1.816 0.072,-3.174 0.216,-4.073 0.145,-0.899 0.386,-1.696 0.726,-2.392 0.662,-1.408 1.633,-2.512 2.914,-3.309 1.281,-0.797 2.727,-1.196 4.339,-1.196 2.8,0 4.87,0.954 6.21,2.864 1.34,1.908 2.011,4.864 2.011,8.869 l 0,22.676 3.589,0 0,-23.567 c 0,-4.802 -0.955,-8.382 -2.864,-10.74 -1.908,-2.359 -4.806,-3.538 -8.691,-3.538 -4.157,0 -7.212,1.154 -9.162,3.462 C 0.976,-32.076 0,-28.471 0,-23.567 L 0,0 Z" /></g><g
           transform="translate(130.5576,122.3613)"
           id="g64"><path
             id="path66"
             style="fill:none;stroke:#ffffff;stroke-width:2;stroke-linecap:round;stroke-linejoin:round;stroke-miterlimit:10;stroke-dasharray:none;stroke-opacity:1"
             d="m 0,0 3.639,0 0,-23.439 c 0,-1.816 0.072,-3.174 0.216,-4.073 0.145,-0.899 0.386,-1.696 0.726,-2.392 0.662,-1.408 1.633,-2.512 2.914,-3.309 1.281,-0.797 2.727,-1.196 4.339,-1.196 2.8,0 4.87,0.954 6.21,2.864 1.34,1.908 2.011,4.864 2.011,8.869 l 0,22.676 3.589,0 0,-23.567 c 0,-4.802 -0.955,-8.382 -2.864,-10.74 -1.908,-2.359 -4.806,-3.538 -8.691,-3.538 -4.157,0 -7.212,1.154 -9.162,3.462 C 0.976,-32.076 0,-28.471 0,-23.567 L 0,0 Z" /></g><g
           transform="translate(164.2285,105.7422)"
           id="g68"><path
             id="path70"
             style="fill:#373535;fill-opacity:1;fill-rule:nonzero;stroke:none"
             d="m 0,0 15.576,0 0,-3.665 -15.576,0 0,-13.183 15.576,0 0,-3.589 -19.241,0 0,37.056 19.241,0 0,-3.639 L 0,12.98 0,0 Z" /></g><g
           transform="translate(164.2285,105.7422)"
           id="g72"><path
             id="path74"
             style="fill:none;stroke:#ffffff;stroke-width:2;stroke-linecap:round;stroke-linejoin:round;stroke-miterlimit:10;stroke-dasharray:none;stroke-opacity:1"
             d="m 0,0 15.576,0 0,-3.665 -15.576,0 0,-13.183 15.576,0 0,-3.589 -19.241,0 0,37.056 19.241,0 0,-3.639 L 0,12.98 0,0 Z" /></g><g
           transform="translate(203.4224,85.3057)"
           id="g76"><path
             id="path78"
             style="fill:#373535;fill-opacity:1;fill-rule:nonzero;stroke:none"
             d="m 0,0 -16.695,0 0,37.056 3.664,0 0,-33.468 L 0,3.588 0,0 Z" /></g><g
           transform="translate(203.4224,85.3057)"
           id="g80"><path
             id="path82"
             style="fill:none;stroke:#ffffff;stroke-width:2;stroke-linecap:round;stroke-linejoin:round;stroke-miterlimit:10;stroke-dasharray:none;stroke-opacity:1"
             d="m 0,0 -16.695,0 0,37.056 3.664,0 0,-33.468 L 0,3.588 0,0 Z" /></g><g
           transform="translate(224.9023,85.3057)"
           id="g84"><path
             id="path86"
             style="fill:#373535;fill-opacity:1;fill-rule:nonzero;stroke:none"
             d="m 0,0 -16.695,0 0,37.056 3.664,0 0,-33.468 L 0,3.588 0,0 Z" /></g><g
           transform="translate(224.9023,85.3057)"
           id="g88"><path
             id="path90"
             style="fill:none;stroke:#ffffff;stroke-width:2;stroke-linecap:round;stroke-linejoin:round;stroke-miterlimit:10;stroke-dasharray:none;stroke-opacity:1"
             d="m 0,0 -16.695,0 0,37.056 3.664,0 0,-33.468 L 0,3.588 0,0 Z" /></g><g
           transform="translate(248.4438,100.2705)"
           id="g92"><path
             id="path94"
             style="fill:#373535;fill-opacity:1;fill-rule:nonzero;stroke:none"
             d="M 0,0 -7.024,18.604 -13.947,0 0,0 Z m -19.648,-14.965 -3.843,0 14.38,37.056 4.377,0 14.329,-37.056 -3.894,0 -4.429,11.631 -16.491,0 -4.429,-11.631 z" /></g><g
           transform="translate(248.4438,100.2705)"
           id="g96"><path
             id="path98"
             style="fill:none;stroke:#ffffff;stroke-width:2;stroke-linecap:round;stroke-linejoin:round;stroke-miterlimit:10;stroke-dasharray:none;stroke-opacity:1"
             d="M 0,0 -7.024,18.604 -13.947,0 0,0 Z m -19.648,-14.965 -3.843,0 14.38,37.056 4.377,0 14.329,-37.056 -3.894,0 -4.429,11.631 -16.491,0 -4.429,-11.631 z" /></g><g
           transform="translate(258.853,95.8931)"
           id="g100"><path
             id="path102"
             style="fill:#373535;fill-opacity:1;fill-rule:nonzero;stroke:none"
             d="m 0,0 3.512,0 c 0.068,-2.291 0.717,-4.115 1.947,-5.472 1.23,-1.358 2.846,-2.036 4.849,-2.036 2.154,0 3.863,0.675 5.128,2.024 1.264,1.348 1.896,3.176 1.896,5.484 0,3.359 -2.596,5.896 -7.788,7.61 -0.407,0.135 -0.712,0.237 -0.916,0.305 -2.715,0.933 -4.67,2.116 -5.867,3.55 -1.196,1.434 -1.794,3.305 -1.794,5.612 0,2.952 0.92,5.37 2.762,7.254 1.84,1.883 4.22,2.825 7.138,2.825 2.783,0 4.988,-0.858 6.617,-2.571 1.629,-1.714 2.537,-4.123 2.724,-7.228 l -3.436,0 c -0.187,2.019 -0.789,3.576 -1.807,4.67 -1.018,1.095 -2.384,1.642 -4.098,1.642 -1.832,0 -3.33,-0.598 -4.492,-1.794 -1.162,-1.197 -1.743,-2.72 -1.743,-4.569 0,-0.967 0.174,-1.803 0.522,-2.507 0.347,-0.704 0.903,-1.344 1.667,-1.921 0.78,-0.577 2.273,-1.222 4.479,-1.934 1.273,-0.407 2.24,-0.738 2.901,-0.993 2.409,-0.933 4.144,-2.125 5.205,-3.576 1.06,-1.45 1.591,-3.355 1.591,-5.713 0,-3.598 -0.98,-6.495 -2.94,-8.692 -1.959,-2.197 -4.56,-3.296 -7.801,-3.296 -3.02,0 -5.471,1.04 -7.355,3.118 C 1.018,-6.129 0.051,-3.394 0,0" /></g><g
           transform="translate(258.853,95.8931)"
           id="g104"><path
             id="path106"
             style="fill:none;stroke:#ffffff;stroke-width:2;stroke-linecap:round;stroke-linejoin:round;stroke-miterlimit:10;stroke-dasharray:none;stroke-opacity:1"
             d="m 0,0 3.512,0 c 0.068,-2.291 0.717,-4.115 1.947,-5.472 1.23,-1.358 2.846,-2.036 4.849,-2.036 2.154,0 3.863,0.675 5.128,2.024 1.264,1.348 1.896,3.176 1.896,5.484 0,3.359 -2.596,5.896 -7.788,7.61 -0.407,0.135 -0.712,0.237 -0.916,0.305 -2.715,0.933 -4.67,2.116 -5.867,3.55 -1.196,1.434 -1.794,3.305 -1.794,5.612 0,2.952 0.92,5.37 2.762,7.254 1.84,1.883 4.22,2.825 7.138,2.825 2.783,0 4.988,-0.858 6.617,-2.571 1.629,-1.714 2.537,-4.123 2.724,-7.228 l -3.436,0 c -0.187,2.019 -0.789,3.576 -1.807,4.67 -1.018,1.095 -2.384,1.642 -4.098,1.642 -1.832,0 -3.33,-0.598 -4.492,-1.794 -1.162,-1.197 -1.743,-2.72 -1.743,-4.569 0,-0.967 0.174,-1.803 0.522,-2.507 0.347,-0.704 0.903,-1.344 1.667,-1.921 0.78,-0.577 2.273,-1.222 4.479,-1.934 1.273,-0.407 2.24,-0.738 2.901,-0.993 2.409,-0.933 4.144,-2.125 5.205,-3.576 1.06,-1.45 1.591,-3.355 1.591,-5.713 0,-3.598 -0.98,-6.495 -2.94,-8.692 -1.959,-2.197 -4.56,-3.296 -7.801,-3.296 -3.02,0 -5.471,1.04 -7.355,3.118 C 1.018,-6.129 0.051,-3.394 0,0 Z" /></g><g
           transform="translate(303.3403,118.8237)"
           id="g108"><path
             id="path110"
             style="fill:#373535;fill-opacity:1;fill-rule:nonzero;stroke:none"
             d="m 0,0 0,-30.031 7.558,0 c 4.717,0 8.348,1.323 10.893,3.97 2.545,2.647 3.818,6.396 3.818,11.249 0,2.426 -0.434,4.666 -1.299,6.719 -0.865,2.052 -2.103,3.775 -3.715,5.166 -1.205,1.052 -2.554,1.803 -4.047,2.253 C 11.716,-0.225 9.544,0 6.693,0 L 0,0 Z m -3.589,3.538 10.538,0 c 2.9,0 5.34,-0.289 7.316,-0.866 1.977,-0.577 3.719,-1.501 5.231,-2.774 2.119,-1.781 3.765,-3.961 4.937,-6.541 1.17,-2.579 1.756,-5.336 1.756,-8.271 0,-3.274 -0.647,-6.256 -1.936,-8.946 -1.289,-2.689 -3.113,-4.882 -5.47,-6.578 -1.563,-1.104 -3.25,-1.893 -5.065,-2.368 -1.816,-0.475 -4.615,-0.712 -8.398,-0.712 l -8.909,0 0,37.056 z" /></g><g
           transform="translate(303.3403,118.8237)"
           id="g112"><path
             id="path114"
             style="fill:none;stroke:#ffffff;stroke-width:2;stroke-linecap:round;stroke-linejoin:round;stroke-miterlimit:10;stroke-dasharray:none;stroke-opacity:1"
             d="m 0,0 0,-30.031 7.558,0 c 4.717,0 8.348,1.323 10.893,3.97 2.545,2.647 3.818,6.396 3.818,11.249 0,2.426 -0.434,4.666 -1.299,6.719 -0.865,2.052 -2.103,3.775 -3.715,5.166 -1.205,1.052 -2.554,1.803 -4.047,2.253 C 11.716,-0.225 9.544,0 6.693,0 L 0,0 Z m -3.589,3.538 10.538,0 c 2.9,0 5.34,-0.289 7.316,-0.866 1.977,-0.577 3.719,-1.501 5.231,-2.774 2.119,-1.781 3.765,-3.961 4.937,-6.541 1.17,-2.579 1.756,-5.336 1.756,-8.271 0,-3.274 -0.647,-6.256 -1.936,-8.946 -1.289,-2.689 -3.113,-4.882 -5.47,-6.578 -1.563,-1.104 -3.25,-1.893 -5.065,-2.368 -1.816,-0.475 -4.615,-0.712 -8.398,-0.712 l -8.909,0 0,37.056 z" /></g><g
           transform="translate(338.1816,105.7422)"
           id="g116"><path
             id="path118"
             style="fill:#373535;fill-opacity:1;fill-rule:nonzero;stroke:none"
             d="m 0,0 15.576,0 0,-3.665 -15.576,0 0,-13.183 15.576,0 0,-3.589 -19.24,0 0,37.056 19.24,0 0,-3.639 L 0,12.98 0,0 Z" /></g><g
           transform="translate(338.1816,105.7422)"
           id="g120"><path
             id="path122"
             style="fill:none;stroke:#ffffff;stroke-width:2;stroke-linecap:round;stroke-linejoin:round;stroke-miterlimit:10;stroke-dasharray:none;stroke-opacity:1"
             d="m 0,0 15.576,0 0,-3.665 -15.576,0 0,-13.183 15.576,0 0,-3.589 -19.24,0 0,37.056 19.24,0 0,-3.639 L 0,12.98 0,0 Z" /></g><g
           transform="translate(394.1465,100.2705)"
           id="g124"><path
             id="path126"
             style="fill:#ee3338;fill-opacity:1;fill-rule:nonzero;stroke:none"
             d="M 0,0 -7.023,18.604 -13.945,0 0,0 Z m -19.646,-14.965 -3.844,0 14.379,37.056 4.379,0 14.328,-37.056 -3.895,0 -4.428,11.631 -16.492,0 -4.427,-11.631 z" /></g><g
           transform="translate(394.1465,100.2705)"
           id="g128"><path
             id="path130"
             style="fill:none;stroke:#ffffff;stroke-width:2;stroke-linecap:round;stroke-linejoin:round;stroke-miterlimit:10;stroke-dasharray:none;stroke-opacity:1"
             d="M 0,0 -7.023,18.604 -13.945,0 0,0 Z m -19.646,-14.965 -3.844,0 14.379,37.056 4.379,0 14.328,-37.056 -3.895,0 -4.428,11.631 -16.492,0 -4.427,-11.631 z" /></g><g
           transform="translate(406.7207,85.3057)"
           id="g132"><path
             id="path134"
             style="fill:#ee3338;fill-opacity:1;fill-rule:nonzero;stroke:none"
             d="m 0,0 0,37.056 5.369,0 12.828,-32.221 12.776,32.221 5.369,0 0,-37.056 -3.487,0 0,32.729 L 19.824,0 16.543,0 3.512,32.729 3.512,0 0,0 Z" /></g><g
           transform="translate(406.7207,85.3057)"
           id="g136"><path
             id="path138"
             style="fill:none;stroke:#ffffff;stroke-width:2;stroke-linecap:round;stroke-linejoin:round;stroke-miterlimit:10;stroke-dasharray:none;stroke-opacity:1"
             d="m 0,0 0,37.056 5.369,0 12.828,-32.221 12.776,32.221 5.369,0 0,-37.056 -3.487,0 0,32.729 L 19.824,0 16.543,0 3.512,32.729 3.512,0 0,0 Z" /></g><g
           transform="translate(451.5117,104.0117)"
           id="g140"><path
             id="path142"
             style="fill:#ee3338;fill-opacity:1;fill-rule:nonzero;stroke:none"
             d="m 0,0 c 0,-4.514 1.469,-8.297 4.404,-11.351 2.934,-3.054 6.557,-4.581 10.867,-4.581 4.208,0 7.762,1.544 10.663,4.632 2.902,3.088 4.353,6.888 4.353,11.402 0,4.208 -1.494,7.834 -4.48,10.88 -2.987,3.045 -6.582,4.568 -10.791,4.568 -1.713,0 -3.364,-0.293 -4.95,-0.878 C 8.479,14.087 7.016,13.226 5.676,12.089 3.91,10.596 2.523,8.771 1.516,6.617 0.506,4.462 0,2.256 0,0 m -3.816,0.051 c 0,2.579 0.496,5.039 1.488,7.381 0.992,2.341 2.43,4.436 4.314,6.286 1.815,1.782 3.813,3.121 5.993,4.021 2.179,0.899 4.542,1.349 7.087,1.349 2.596,0 5.002,-0.454 7.217,-1.362 2.213,-0.908 4.237,-2.261 6.069,-4.059 1.884,-1.85 3.3,-3.919 4.25,-6.21 0.951,-2.29 1.425,-4.759 1.425,-7.406 0,-2.63 -0.406,-5.044 -1.22,-7.241 -0.815,-2.197 -2.037,-4.195 -3.666,-5.993 -1.883,-2.07 -4.012,-3.631 -6.387,-4.683 -2.377,-1.052 -4.955,-1.578 -7.738,-1.578 -5.328,0 -9.799,1.87 -13.412,5.611 -3.614,3.742 -5.42,8.37 -5.42,13.884" /></g><g
           transform="translate(451.5117,104.0117)"
           id="g144"><path
             id="path146"
             style="fill:none;stroke:#ffffff;stroke-width:2;stroke-linecap:round;stroke-linejoin:round;stroke-miterlimit:10;stroke-dasharray:none;stroke-opacity:1"
             d="m 0,0 c 0,-4.514 1.469,-8.297 4.404,-11.351 2.934,-3.054 6.557,-4.581 10.867,-4.581 4.208,0 7.762,1.544 10.663,4.632 2.902,3.088 4.353,6.888 4.353,11.402 0,4.208 -1.494,7.834 -4.48,10.88 -2.987,3.045 -6.582,4.568 -10.791,4.568 -1.713,0 -3.364,-0.293 -4.95,-0.878 C 8.479,14.087 7.016,13.226 5.676,12.089 3.91,10.596 2.523,8.771 1.516,6.617 0.506,4.462 0,2.256 0,0 Z m -3.816,0.051 c 0,2.579 0.496,5.039 1.488,7.381 0.992,2.341 2.43,4.436 4.314,6.286 1.815,1.782 3.813,3.121 5.993,4.021 2.179,0.899 4.542,1.349 7.087,1.349 2.596,0 5.002,-0.454 7.217,-1.362 2.213,-0.908 4.237,-2.261 6.069,-4.059 1.884,-1.85 3.3,-3.919 4.25,-6.21 0.951,-2.29 1.425,-4.759 1.425,-7.406 0,-2.63 -0.406,-5.044 -1.22,-7.241 -0.815,-2.197 -2.037,-4.195 -3.666,-5.993 -1.883,-2.07 -4.012,-3.631 -6.387,-4.683 -2.377,-1.052 -4.955,-1.578 -7.738,-1.578 -5.328,0 -9.799,1.87 -13.412,5.611 -3.614,3.742 -5.42,8.37 -5.42,13.884 z" /></g><g
           transform="translate(493.6836,118.7222)"
           id="g148"><path
             id="path150"
             style="fill:#ee3338;fill-opacity:1;fill-rule:nonzero;stroke:none"
             d="m 0,0 0,-33.417 -3.588,0 0,37.056 9.951,0 c 2.188,0 3.95,-0.165 5.282,-0.496 1.33,-0.331 2.539,-0.878 3.625,-1.642 1.476,-1.035 2.642,-2.418 3.5,-4.148 0.857,-1.73 1.285,-3.563 1.285,-5.497 0,-2.868 -0.852,-5.336 -2.557,-7.406 -1.705,-2.071 -3.84,-3.199 -6.402,-3.385 l 8.959,-14.482 -4.326,0 -10.995,17.867 3.512,0 c 2.342,0 4.246,0.687 5.713,2.061 1.469,1.374 2.203,3.139 2.203,5.294 0,1.306 -0.226,2.494 -0.676,3.563 -0.449,1.069 -1.115,2.002 -1.998,2.799 C 12.76,-1.171 11.881,-0.7 10.855,-0.42 9.828,-0.14 8,0 5.371,0 L 0,0 Z" /></g><g
           transform="translate(493.6836,118.7222)"
           id="g152"><path
             id="path154"
             style="fill:none;stroke:#ffffff;stroke-width:2;stroke-linecap:round;stroke-linejoin:round;stroke-miterlimit:10;stroke-dasharray:none;stroke-opacity:1"
             d="m 0,0 0,-33.417 -3.588,0 0,37.056 9.951,0 c 2.188,0 3.95,-0.165 5.282,-0.496 1.33,-0.331 2.539,-0.878 3.625,-1.642 1.476,-1.035 2.642,-2.418 3.5,-4.148 0.857,-1.73 1.285,-3.563 1.285,-5.497 0,-2.868 -0.852,-5.336 -2.557,-7.406 -1.705,-2.071 -3.84,-3.199 -6.402,-3.385 l 8.959,-14.482 -4.326,0 -10.995,17.867 3.512,0 c 2.342,0 4.246,0.687 5.713,2.061 1.469,1.374 2.203,3.139 2.203,5.294 0,1.306 -0.226,2.494 -0.676,3.563 -0.449,1.069 -1.115,2.002 -1.998,2.799 C 12.76,-1.171 11.881,-0.7 10.855,-0.42 9.828,-0.14 8,0 5.371,0 L 0,0 Z" /></g></g></g></g></svg>