<?xml version="1.0" standalone="no"?>
<!DOCTYPE svg PUBLIC "-//W3C//DTD SVG 20010904//EN"
 "http://www.w3.org/TR/2001/REC-SVG-20010904/DTD/svg10.dtd">
<svg version="1.0" xmlns="http://www.w3.org/2000/svg"
 width="631.000000pt" height="631.000000pt" viewBox="0 0 631.000000 631.000000"
 preserveAspectRatio="xMidYMid meet">

<g transform="translate(0.000000,631.000000) scale(0.100000,-0.100000)"
fill="#000000" stroke="none">
<path d="M3967 5800 c-389 -35 -662 -136 -811 -302 l-55 -60 -62 66 c-120 129
-304 208 -569 246 -224 32 -869 56 -1100 41 -456 -30 -736 -119 -902 -286
-103 -103 -142 -207 -152 -405 -4 -63 -9 -134 -12 -156 -6 -40 -5 -43 40 -73
25 -18 77 -63 114 -101 l68 -68 35 31 c106 98 209 164 349 224 255 109 518
155 733 130 67 -9 67 -8 67 16 0 87 158 272 312 364 117 70 178 88 303 87 243
-2 410 -102 431 -258 14 -96 -66 -257 -146 -299 -25 -13 -48 -17 -82 -13 -56
6 -96 26 -229 112 -160 106 -231 124 -317 83 -51 -25 -92 -81 -98 -136 -4 -35
-2 -40 39 -69 46 -34 85 -88 163 -224 69 -121 211 -261 374 -369 144 -96 204
-155 251 -248 32 -64 34 -72 34 -173 0 -103 -1 -108 -39 -186 -69 -140 -215
-268 -431 -377 -102 -51 -350 -137 -472 -163 -46 -10 -83 -21 -83 -26 0 -5 33
-7 73 -4 39 3 133 8 207 11 258 11 524 52 714 112 93 28 229 93 267 126 l27
22 -9 210 c-10 234 -24 305 -65 331 -13 9 -43 47 -65 83 -22 36 -59 94 -83
128 -31 44 -55 98 -87 194 -37 113 -49 138 -81 168 -41 39 -51 84 -22 95 74
28 187 -30 200 -103 7 -39 44 -95 74 -111 27 -14 72 27 100 92 22 50 23 71 29
337 6 263 8 284 26 297 23 17 59 18 73 2 5 -7 15 -89 21 -183 15 -222 20 -267
31 -285 9 -13 11 -13 20 0 23 35 119 361 135 456 3 22 15 55 25 72 16 26 26
32 55 32 29 0 37 -5 46 -27 16 -41 5 -109 -62 -388 -27 -115 -33 -149 -30
-187 1 -19 21 -25 21 -7 0 12 107 253 151 341 35 70 69 96 103 80 43 -19 41
-56 -10 -197 -80 -225 -122 -350 -119 -353 2 -2 16 7 32 21 15 14 57 50 93 81
118 103 207 140 212 88 4 -43 -9 -62 -105 -166 -57 -61 -118 -133 -136 -159
-45 -66 -120 -298 -132 -407 -10 -100 -12 -382 -2 -534 l6 -107 48 -25 c171
-86 413 -118 859 -112 l225 3 -80 29 c-263 95 -471 242 -570 401 -74 119 -90
184 -89 360 1 163 11 208 77 340 60 122 174 260 282 343 32 24 241 170 269
187 11 7 19 35 27 95 12 103 59 315 94 430 15 47 34 112 44 145 12 40 24 61
35 63 46 9 320 -194 508 -376 l67 -65 128 2 c197 3 299 -34 413 -148 49 -49
113 -134 122 -162 2 -6 11 -7 21 -4 20 8 22 42 7 165 -16 131 -46 236 -97 338
-102 205 -300 328 -608 377 -243 39 -1023 67 -1268 45z"/>
<path d="M290 4499 c0 -91 4 -138 10 -134 6 3 10 11 10 17 0 6 21 47 46 91
l47 81 -46 43 c-25 24 -51 43 -56 43 -7 0 -11 -48 -11 -141z"/>
<path d="M4690 4310 c-88 -21 -103 -108 -47 -271 37 -107 101 -223 189 -341
81 -110 101 -120 213 -115 210 9 557 181 580 288 14 63 -61 161 -179 233 -155
96 -402 183 -581 205 -101 12 -125 12 -175 1z m730 -321 c60 -27 90 -57 90
-89 0 -52 -36 -62 -127 -35 -79 23 -136 98 -101 133 18 18 88 14 138 -9z"/>
<path d="M1810 4243 c-191 -19 -371 -125 -462 -273 -9 -15 -24 -52 -34 -83
-15 -49 -15 -61 -4 -103 28 -98 121 -154 294 -176 80 -10 105 -9 180 5 189 37
331 135 401 276 40 79 43 139 11 204 -40 83 -122 130 -248 142 -35 3 -72 7
-83 9 -11 1 -36 1 -55 -1z m238 -120 c57 -35 -6 -103 -96 -103 -55 0 -82 14
-82 43 0 71 104 106 178 60z"/>
<path d="M4759 2949 c-96 -105 -97 -108 -69 -131 12 -10 29 -18 36 -18 21 0
208 95 223 113 9 12 9 20 0 34 -16 25 -88 83 -104 83 -7 0 -46 -37 -86 -81z"/>
<path d="M2070 2783 c0 -15 -41 -309 -47 -333 -4 -16 -16 37 -34 144 -16 93
-31 171 -33 174 -9 8 -315 14 -332 6 -11 -5 -73 -9 -139 -9 l-120 0 -7 -150
c-8 -163 -24 -333 -34 -359 -14 -36 -31 -15 -38 45 -10 96 -7 174 9 304 23
183 32 165 -87 165 -125 0 -148 -5 -149 -34 -1 -19 -2 -18 -8 4 -7 24 -10 25
-76 22 -236 -8 -481 -24 -488 -32 -5 -4 -5 -48 0 -96 8 -86 9 -89 33 -89 24 0
25 -3 32 -95 4 -52 10 -175 14 -273 l6 -178 106 3 105 3 -2 166 -2 166 53 6
c29 4 70 7 91 7 l38 0 -3 83 -3 82 -87 -3 c-90 -3 -104 3 -93 38 6 18 15 20
104 20 139 0 161 6 161 41 0 15 3 30 8 32 4 3 6 -63 4 -146 -6 -278 26 -419
107 -474 47 -32 122 -31 186 2 48 24 64 21 65 -9 0 -12 110 0 144 15 l26 12 0
156 c0 167 19 508 29 528 3 6 5 -150 3 -348 -2 -197 -2 -359 0 -359 2 -1 40
-3 85 -6 72 -5 82 -4 91 12 5 11 15 91 22 179 6 88 13 167 14 175 4 21 5 16
62 -178 l48 -163 110 3 111 3 11 60 c6 33 24 128 39 210 28 153 74 392 77 403
1 4 4 -29 7 -73 5 -72 8 -80 27 -83 28 -4 34 -39 34 -205 l0 -127 -30 -6 -30
-6 0 -89 0 -88 38 -10 c104 -30 265 -5 369 56 152 89 225 342 144 501 -67 132
-212 190 -443 179 -85 -4 -141 -1 -187 9 -72 15 -141 18 -141 7z m527 -253
c43 -15 57 -48 51 -118 -6 -63 -41 -132 -78 -152 -19 -10 -20 -8 -20 52 0 62
11 228 15 228 1 0 16 -5 32 -10z"/>
<path d="M5462 2729 c-6 -35 -16 -104 -22 -154 -20 -175 -20 -174 -52 14 -15
96 -31 177 -34 180 -2 3 -80 5 -172 6 l-167 0 -5 -150 c-3 -96 -7 -136 -11
-110 -18 111 -79 209 -152 247 -59 30 -153 21 -211 -19 -84 -59 -132 -225
-108 -377 36 -229 126 -356 254 -356 115 0 190 98 217 285 7 49 9 30 10 -106
l1 -166 53 -7 c28 -3 68 -6 88 -6 43 0 41 -5 59 210 14 164 18 178 35 120 6
-25 29 -103 51 -173 l39 -128 110 3 110 3 32 175 c18 96 46 249 63 340 18 91
32 172 33 180 3 19 -56 38 -143 46 l-67 7 -11 -64z m-660 -255 c29 -83 18
-222 -16 -211 -33 10 -59 183 -36 242 14 37 32 27 52 -31z"/>
<path d="M3168 2773 c-20 -3 -30 -14 -43 -46 -75 -187 -252 -694 -244 -701 2
-2 44 -5 94 -7 l90 -4 28 71 c32 80 39 84 142 84 l52 0 13 -57 c17 -81 26 -93
61 -93 39 0 167 29 174 40 2 4 -7 45 -21 91 -37 125 -110 412 -129 509 -25
132 -15 120 -108 119 -45 -1 -94 -4 -109 -6z m72 -400 c0 -12 -5 -25 -11 -29
-19 -11 -27 10 -17 45 7 26 12 31 19 20 5 -8 9 -24 9 -36z"/>
<path d="M3762 2761 c-96 -33 -165 -127 -198 -268 -18 -76 -15 -259 6 -327 16
-52 83 -123 129 -136 94 -26 195 3 239 69 27 42 52 122 52 172 0 34 -2 37 -37
43 -21 3 -65 6 -99 6 l-61 0 5 -30 c6 -41 -5 -80 -23 -80 -26 0 -37 50 -32
147 6 133 60 238 103 202 8 -6 14 -29 14 -51 l0 -39 78 3 77 3 3 48 3 47 75 0
74 0 -2 -182 -3 -183 -67 -3 -68 -3 0 -89 0 -90 239 0 c209 0 240 2 245 16 3
9 6 49 6 89 l0 74 -67 3 -68 3 3 165 c2 91 6 173 8 183 4 13 16 17 58 17 l53
0 7 46 c3 26 6 71 6 100 l0 52 -237 -5 c-131 -2 -244 -6 -250 -8 -9 -3 -13
-26 -13 -67 l0 -63 -24 50 c-28 61 -49 80 -101 94 -54 15 -71 14 -133 -8z"/>
<path d="M3270 1676 c-98 -21 -156 -69 -210 -176 -118 -235 -54 -679 124 -853
59 -58 116 -80 202 -80 201 0 324 168 354 484 22 233 -37 442 -155 545 -83 74
-204 104 -315 80z m123 -403 c50 -111 11 -385 -51 -347 -37 24 -47 64 -47 199
0 105 3 136 18 163 26 48 53 43 80 -15z"/>
<path d="M102 1673 l-102 -4 0 -544 0 -545 39 0 40 0 22 99 c12 55 25 103 28
108 3 4 55 6 114 3 l109 -5 45 -107 c53 -124 40 -118 188 -89 77 15 90 21 88
37 -2 23 -90 367 -168 664 -32 118 -67 253 -79 300 l-21 85 -100 1 c-55 0
-146 -1 -203 -3z m126 -531 c29 -90 29 -92 -14 -92 l-37 0 7 46 c3 26 6 62 6
80 0 53 14 40 38 -34z"/>
<path d="M828 1672 l-138 -3 0 -67 c0 -107 31 -966 35 -979 3 -10 45 -13 165
-13 l160 0 0 39 c0 22 -7 114 -16 206 -8 91 -14 172 -12 180 2 9 29 -18 67
-65 35 -44 68 -80 72 -80 13 0 88 84 141 161 48 68 52 71 59 48 14 -43 39
-316 39 -418 l0 -98 31 -7 c38 -7 232 -8 251 -1 11 4 12 28 6 118 -7 118 -35
713 -41 882 l-4 99 -189 -3 c-104 -1 -192 -6 -195 -9 -3 -4 -28 -70 -54 -147
-26 -77 -50 -142 -52 -144 -6 -8 -15 9 -78 150 -52 116 -69 145 -87 149 -13 3
-85 4 -160 2z"/>
<path d="M1790 1664 c-49 -21 -69 -42 -80 -86 -22 -81 31 -170 117 -196 94
-28 178 -6 221 58 32 47 27 123 -11 173 -46 60 -168 85 -247 51z"/>
<path d="M2540 1674 c-197 -38 -358 -196 -406 -399 -19 -81 -14 -230 11 -333
46 -193 167 -339 323 -391 147 -50 394 -4 438 81 14 27 16 52 11 154 l-6 122
40 6 c40 6 41 8 36 39 -3 18 -9 67 -13 111 l-7 79 -56 -7 c-311 -34 -371 -44
-378 -63 -5 -14 23 -182 32 -192 3 -2 22 -4 42 -5 l38 -1 -1 -44 c-1 -30 -7
-48 -19 -58 -30 -21 -53 -15 -93 25 -72 72 -106 217 -90 383 11 113 56 190
120 204 39 9 65 -15 80 -73 l11 -44 71 6 c39 4 100 10 135 13 l63 6 -5 66
c-10 136 -78 248 -178 290 -49 22 -151 34 -199 25z"/>
<path d="M4904 1669 c-107 -31 -132 -171 -44 -247 33 -28 97 -52 144 -52 103
0 166 58 166 154 0 112 -132 184 -266 145z"/>
<path d="M5288 1674 c-10 -16 -31 -222 -25 -238 3 -8 21 -16 39 -18 l33 -3 -3
-65 c-5 -110 -32 -454 -37 -477 -4 -16 -13 -23 -30 -23 -30 0 -33 -11 -37
-135 l-3 -99 30 -7 c17 -4 136 -13 265 -19 129 -6 258 -13 286 -17 l51 -5 7
33 c13 67 19 216 8 223 -5 3 -65 9 -131 13 l-121 6 0 31 c0 17 3 62 7 100 l6
69 113 -7 112 -7 7 108 c4 59 7 122 8 138 2 30 1 30 -53 32 -123 6 -160 13
-160 33 0 55 12 58 193 38 67 -7 111 -8 117 -2 5 5 12 67 16 136 6 105 5 128
-7 132 -50 17 -683 45 -691 30z"/>
<path d="M6116 1593 c-33 -181 -122 -967 -111 -981 5 -6 187 -21 248 -22 l57
0 0 535 0 535 -22 4 c-13 3 -53 8 -89 11 l-67 6 -16 -88z"/>
<path d="M4471 1644 c-156 -7 -285 -15 -288 -17 -2 -2 1 -24 6 -49 20 -88 61
-613 74 -943 l3 -70 109 -3 c61 -2 134 0 163 3 l54 7 -7 237 -8 238 94 9 94 9
-4 81 c-1 45 -6 97 -10 115 l-7 34 -81 -3 c-80 -4 -80 -4 -87 23 -14 56 -5 61
111 68 58 4 108 9 111 11 2 3 0 62 -4 133 -7 102 -12 128 -24 129 -8 1 -143
-5 -299 -12z"/>
<path d="M1723 1273 c4 -38 22 -162 41 -278 20 -116 40 -251 47 -301 6 -50 15
-98 20 -105 6 -10 39 -13 133 -13 69 0 128 3 131 6 4 4 8 174 8 380 l2 373
-194 3 -194 2 6 -67z"/>
<path d="M4820 1310 c0 -17 14 -115 30 -218 17 -103 42 -259 56 -347 14 -88
28 -162 31 -165 7 -7 247 -5 260 3 9 5 12 105 13 382 l1 375 -196 0 -195 0 0
-30z"/>
</g>
</svg>
